<svg width="22" height="22" viewBox="0 0 22 22" fill="none" xmlns="http://www.w3.org/2000/svg">
<g id="mingcute:ai-fill">
<g id="Group">
<path id="Vector" d="M8.34793 4.99404C8.8961 3.38987 11.1126 3.34129 11.7625 4.84829L11.8175 4.99496L12.5573 7.15829C12.7268 7.65442 13.0008 8.10843 13.3607 8.48968C13.7206 8.87093 14.1581 9.17057 14.6436 9.36837L14.8425 9.44262L17.0059 10.1815C18.61 10.7296 18.6586 12.9461 17.1525 13.596L17.0059 13.651L14.8425 14.3908C14.3462 14.5602 13.892 14.8341 13.5106 15.194C13.1292 15.5539 12.8294 15.9915 12.6315 16.4771L12.5573 16.6751L11.8184 18.8394C11.2703 20.4435 9.05377 20.4921 8.40477 18.986L8.34793 18.8394L7.6091 16.676C7.43968 16.1797 7.16578 15.7256 6.80586 15.3441C6.44595 14.9627 6.00841 14.6629 5.52277 14.465L5.32477 14.3908L3.16143 13.652C1.55635 13.1038 1.50777 10.8873 3.01477 10.2383L3.16143 10.1815L5.32477 9.44262C5.8209 9.27309 6.2749 8.99914 6.65616 8.63923C7.03741 8.27932 7.33705 7.84184 7.53485 7.35629L7.6091 7.15829L8.34793 4.99404ZM17.4165 1.83337C17.588 1.83337 17.7561 1.88148 17.9016 1.97222C18.0471 2.06297 18.1642 2.19271 18.2397 2.34671L18.2837 2.45396L18.6045 3.39446L19.5459 3.71529C19.7178 3.77368 19.8685 3.88177 19.9788 4.02587C20.0892 4.16997 20.1543 4.34359 20.1659 4.52473C20.1774 4.70586 20.135 4.88636 20.0439 5.04335C19.9528 5.20033 19.8171 5.32674 19.6541 5.40654L19.5459 5.45054L18.6054 5.77137L18.2846 6.71279C18.2261 6.8846 18.1179 7.03518 17.9738 7.14545C17.8296 7.25572 17.656 7.32072 17.4749 7.3322C17.2937 7.34369 17.1133 7.30115 16.9563 7.20997C16.7994 7.11879 16.6731 6.98309 16.5934 6.82004L16.5494 6.71279L16.2285 5.77229L15.2871 5.45146C15.1152 5.39307 14.9646 5.28498 14.8542 5.14088C14.7439 4.99678 14.6788 4.82316 14.6672 4.64202C14.6556 4.46089 14.698 4.28039 14.7892 4.1234C14.8803 3.96642 15.0159 3.84001 15.1789 3.76021L15.2871 3.71621L16.2276 3.39537L16.5484 2.45396C16.6102 2.27285 16.7272 2.11562 16.8829 2.00433C17.0385 1.89304 17.2252 1.83326 17.4165 1.83337Z" fill="white"/>
</g>
</g>
</svg>
