<svg width="19" height="14" viewBox="0 0 19 14" fill="none" xmlns="http://www.w3.org/2000/svg">
<g clip-path="url(#clip0_4802_45616)">
<path d="M15.3367 3.31864C15.6583 2.62155 14.7962 1.94605 13.9066 2.19864L3.03374 5.2798C2.14114 5.53297 2.03319 6.4873 2.85433 6.86005L6.325 8.43447L9.42418 6.00605C9.56458 5.89979 9.75263 5.841 9.94783 5.84233C10.143 5.84366 10.3297 5.905 10.4678 6.01316C10.6058 6.12131 10.6841 6.26762 10.6858 6.42057C10.6875 6.57352 10.6124 6.72087 10.4768 6.83089L7.37766 9.2593L9.3877 11.9788C9.86266 12.6222 11.0806 12.5371 11.4037 11.8382L15.3367 3.31864Z" fill="white"/>
</g>
<defs>
<clipPath id="clip0_4802_45616">
<rect width="17.867" height="14" fill="white" transform="translate(0.273438)"/>
</clipPath>
</defs>
</svg>
