<svg width="16" height="16" viewBox="0 0 16 16" fill="none" xmlns="http://www.w3.org/2000/svg">
<g id="subway:sound-1">
<path id="Vector" d="M12.2188 8C12.2188 6.89062 11.5407 5.94063 10.5782 5.54063L10.0657 6.77187C10.547 6.97187 10.8845 7.44688 10.8845 8.00313C10.8845 8.55625 10.547 9.03125 10.0657 9.23438L10.5782 10.4656C11.5407 10.0594 12.2188 9.10938 12.2188 8ZM11.6032 3.07812L11.0907 4.30937C12.5376 4.9125 13.5532 6.3375 13.5532 8C13.5532 9.66562 12.5376 11.0875 11.0907 11.6906L11.6032 12.9219C13.5313 12.1187 14.8845 10.2188 14.8845 8C14.8845 5.78125 13.5313 3.88125 11.6032 3.07812ZM1.55322 4.66563V11.3313H4.21885L8.88447 16V0L4.21885 4.66563H1.55322Z" fill="white"/>
</g>
</svg>
